<svg width="100" height="100" viewBox="0 0 100 100" fill="none" xmlns="http://www.w3.org/2000/svg">
<g clip-path="url(#clip0_4077_1482)">
<path d="M0 29.84C0 5.26676 5.26676 0 29.84 0H70.16C94.7332 0 100 5.26676 100 29.84V70.16C100 94.7332 94.7332 100 70.16 100H29.84C5.26676 100 0 94.7332 0 70.16V29.84Z" fill="#B725C8"/>
<path d="M48.9843 80C45.8084 80 42.7047 79.7086 39.6732 79.1257C36.6417 78.5428 33.7546 77.7414 31.0118 76.7213C28.269 75.5556 25.5984 74.1712 23 72.5683L31.2284 58.7978C33.8268 60.4007 36.353 61.6393 38.8071 62.5137C41.2612 63.2423 43.7874 63.6066 46.3858 63.6066C50.1391 63.6066 53.1706 62.6594 55.4803 60.765C57.9344 58.725 59.1614 56.102 59.1614 52.8962C59.1614 50.2732 58.0788 48.1603 55.9134 46.5574C53.8924 44.8088 51.0774 43.9344 47.4685 43.9344C45.4475 43.9344 43.3544 44.2259 41.189 44.8087C39.0236 45.2459 37.0748 45.7559 35.3425 46.3388L30.5787 33.6612L55.6969 13.5519L58.9449 16.612H28.4134V0H71.0709L72.8031 15.9563L49.8504 34.0984L47.4685 32.5683C48.479 31.9854 49.6339 31.5483 50.9331 31.2568C52.3766 30.8197 53.5315 30.6011 54.3976 30.6011C61.4711 30.6011 67.1733 32.714 71.504 36.9399C75.8347 41.02 78 46.5574 78 53.5519C78 58.6521 76.7008 63.2423 74.1024 67.3224C71.5039 71.2568 67.9672 74.3898 63.4921 76.7213C59.1614 78.9071 54.3255 80 48.9843 80Z" fill="white"/>
</g>
<defs>
<clipPath id="clip0_4077_1482">
<rect width="100" height="100" fill="white"/>
</clipPath>
</defs>
</svg>
